<svg xmlns="http://www.w3.org/2000/svg" viewBox="0 0 1200 900" fill="none"><rect width="1200" height="900" rx="44" fill="#FFF7ED"/><circle cx="1030" cy="145" r="120" fill="#FED7AA" fill-opacity=".68"/><text x="90" y="150" fill="#9A3412" font-family="Segoe UI, Arial, sans-serif" font-size="42" font-weight="700">Combo Burger Duo</text><text x="90" y="205" fill="#C2410C" font-family="Segoe UI, Arial, sans-serif" font-size="28">Burger, fries and two drinks</text><ellipse cx="420" cy="424" rx="160" ry="58" fill="#F59E0B"/><rect x="272" y="434" width="296" height="22" rx="11" fill="#FDE68A"/><rect x="246" y="462" width="348" height="42" rx="21" fill="#7C2D12"/><rect x="272" y="514" width="296" height="22" rx="11" fill="#16A34A"/><rect x="290" y="546" width="260" height="36" rx="18" fill="#92400E"/><path d="M708 352h108l42 250H666l42-250Z" fill="#F59E0B"/><rect x="698" y="328" width="128" height="42" rx="21" fill="#DC2626"/><path d="M910 318h62v292h-62c-18 0-32-14-32-32V350c0-18 14-32 32-32Z" fill="#93C5FD"/><rect x="938" y="258" width="12" height="116" rx="6" fill="#2563EB" transform="rotate(12 938 258)"/><text x="90" y="790" fill="#C2410C" font-family="Segoe UI, Arial, sans-serif" font-size="26">Combo illustration with sides and drinks</text></svg>