<svg xmlns="http://www.w3.org/2000/svg" viewBox="0 0 1200 900" fill="none"><rect width="1200" height="900" rx="44" fill="#FFF8F1"/><circle cx="1010" cy="148" r="118" fill="#FDE68A" fill-opacity=".52"/><text x="90" y="150" fill="#9A3412" font-family="Segoe UI, Arial, sans-serif" font-size="42" font-weight="700">Combo Mì Trưa Văn Phòng</text><text x="90" y="205" fill="#B45309" font-family="Segoe UI, Arial, sans-serif" font-size="28">Pasta, soup and iced tea lunch set</text><ellipse cx="420" cy="586" rx="170" ry="78" fill="#E5E7EB"/><ellipse cx="420" cy="554" rx="150" ry="58" fill="#FFF7ED"/><path d="M332 548c28-18 62-18 96 8 34 26 70 34 110 16" stroke="#F59E0B" stroke-width="16" stroke-linecap="round"/><circle cx="400" cy="530" r="14" fill="#DC2626"/><path d="M730 470c0-58 42-100 100-100s100 42 100 100v138H730V470Z" fill="#FDE68A"/><rect x="746" y="530" width="168" height="18" rx="9" fill="#F59E0B"/><rect x="980" y="394" width="70" height="244" rx="35" fill="#FBBF24"/><rect x="1008" y="336" width="10" height="96" rx="5" fill="#0EA5E9" transform="rotate(14 1008 336)"/><text x="90" y="790" fill="#B45309" font-family="Segoe UI, Arial, sans-serif" font-size="26">Lunch combo illustration</text></svg>