<svg xmlns="http://www.w3.org/2000/svg" viewBox="0 0 1200 900" fill="none"><rect width="1200" height="900" rx="44" fill="#FFF7ED"/><circle cx="1020" cy="150" r="116" fill="#FDBA74" fill-opacity=".58"/><text x="90" y="150" fill="#9A3412" font-family="Segoe UI, Arial, sans-serif" font-size="42" font-weight="700">Combo Pizza Tiệc Nhỏ</text><text x="90" y="205" fill="#C2410C" font-family="Segoe UI, Arial, sans-serif" font-size="28">Large pizza, wings and cola bottle</text><circle cx="438" cy="536" r="150" fill="#D97706"/><circle cx="438" cy="536" r="126" fill="#FCD34D"/><path d="M438 536 550 430" stroke="#B91C1C" stroke-width="10"/><path d="M438 536 582 552" stroke="#B91C1C" stroke-width="10"/><path d="M438 536 486 674" stroke="#B91C1C" stroke-width="10"/><path d="M438 536 322 628" stroke="#B91C1C" stroke-width="10"/><path d="M438 536 306 470" stroke="#B91C1C" stroke-width="10"/><ellipse cx="760" cy="486" rx="122" ry="74" fill="#C2410C"/><ellipse cx="842" cy="560" rx="110" ry="66" fill="#EA580C"/><path d="M980 324h78v312h-78c-28 0-50-22-50-50V374c0-28 22-50 50-50Z" fill="#60A5FA"/><rect x="1012" y="264" width="12" height="114" rx="6" fill="#1D4ED8" transform="rotate(8 1012 264)"/><text x="90" y="790" fill="#C2410C" font-family="Segoe UI, Arial, sans-serif" font-size="26">Party combo illustration</text></svg>