<svg xmlns="http://www.w3.org/2000/svg" viewBox="0 0 1200 900" fill="none"><rect width="1200" height="900" rx="44" fill="#FFF8F1"/><circle cx="1025" cy="150" r="118" fill="#FCA5A5" fill-opacity=".55"/><text x="90" y="150" fill="#9A3412" font-family="Segoe UI, Arial, sans-serif" font-size="42" font-weight="700">Combo Gà Gia Đình</text><text x="90" y="205" fill="#B91C1C" font-family="Segoe UI, Arial, sans-serif" font-size="28">Family bucket with fries, slaw and drinks</text><path d="M318 366h244l66 292H252l66-292Z" fill="#DC2626"/><rect x="300" y="348" width="280" height="38" rx="19" fill="#FCA5A5"/><ellipse cx="386" cy="442" rx="62" ry="92" fill="#F97316"/><ellipse cx="506" cy="438" rx="60" ry="88" fill="#FB923C"/><ellipse cx="626" cy="458" rx="58" ry="82" fill="#EA580C"/><path d="M760 390h120l48 236H712l48-236Z" fill="#F59E0B"/><rect x="748" y="366" width="144" height="34" rx="17" fill="#FDE68A"/><rect x="930" y="332" width="58" height="254" rx="29" fill="#93C5FD"/><rect x="956" y="278" width="10" height="100" rx="5" fill="#2563EB" transform="rotate(10 956 278)"/><text x="90" y="790" fill="#C2410C" font-family="Segoe UI, Arial, sans-serif" font-size="26">Large share combo artwork</text></svg>