<svg xmlns="http://www.w3.org/2000/svg" viewBox="0 0 1200 900" fill="none"><rect width="1200" height="900" rx="44" fill="#FFF7FB"/><circle cx="1010" cy="146" r="118" fill="#F9A8D4" fill-opacity=".45"/><text x="90" y="150" fill="#9D174D" font-family="Segoe UI, Arial, sans-serif" font-size="42" font-weight="700">Kem Sundae Sô Cô La</text><text x="90" y="205" fill="#7C2D12" font-family="Segoe UI, Arial, sans-serif" font-size="28">Vanilla sundae with chocolate sauce</text><path d="M454 588c0-108 74-184 166-184s166 76 166 184H454Z" fill="#F5F5F4"/><path d="M486 574c18-64 72-108 134-108s118 44 136 108" stroke="#7C2D12" stroke-width="30" stroke-linecap="round"/><path d="M520 620h200l-28 102c-10 34-40 58-74 58h-16c-34 0-64-24-74-58l-28-102Z" fill="#FBCFE8"/><circle cx="618" cy="380" r="28" fill="#F43F5E"/><rect x="614" y="310" width="8" height="70" rx="4" fill="#16A34A"/><text x="90" y="790" fill="#9D174D" font-family="Segoe UI, Arial, sans-serif" font-size="26">Chocolate sundae artwork</text></svg>