<svg xmlns="http://www.w3.org/2000/svg" viewBox="0 0 1200 900" fill="none"><rect width="1200" height="900" rx="44" fill="#FFFBEB"/><circle cx="1010" cy="150" r="116" fill="#FDE68A" fill-opacity=".6"/><text x="90" y="150" fill="#92400E" font-family="Segoe UI, Arial, sans-serif" font-size="42" font-weight="700">Khoai Tây Lắc Phô Mai</text><text x="90" y="205" fill="#B45309" font-family="Segoe UI, Arial, sans-serif" font-size="28">Cheesy seasoned fries</text><path d="M406 338h388l82 344H324l82-344Z" fill="#DC2626"/><rect x="376" y="314" width="448" height="42" rx="21" fill="#FCA5A5"/><rect x="410" y="388" width="34" height="206" rx="17" fill="#FCD34D" transform="rotate(-10 410 388)"/><rect x="500" y="372" width="34" height="218" rx="17" fill="#FBBF24" transform="rotate(6 500 372)"/><rect x="592" y="386" width="34" height="214" rx="17" fill="#FCD34D" transform="rotate(-4 592 386)"/><rect x="680" y="374" width="34" height="220" rx="17" fill="#FBBF24" transform="rotate(8 680 374)"/><circle cx="470" cy="610" r="9" fill="#F59E0B"/><circle cx="548" cy="620" r="9" fill="#F59E0B"/><circle cx="622" cy="612" r="9" fill="#F59E0B"/><text x="90" y="790" fill="#B45309" font-family="Segoe UI, Arial, sans-serif" font-size="26">Cheddar dust fries artwork</text></svg>