<svg xmlns="http://www.w3.org/2000/svg" viewBox="0 0 1200 900" fill="none"><rect width="1200" height="900" rx="44" fill="#FFFBF5"/><circle cx="1008" cy="145" r="118" fill="#E5E7EB" fill-opacity=".9"/><text x="90" y="150" fill="#78716C" font-family="Segoe UI, Arial, sans-serif" font-size="42" font-weight="700">Mì Ý Sốt Kem Nấm</text><text x="90" y="205" fill="#57534E" font-family="Segoe UI, Arial, sans-serif" font-size="28">Creamy mushroom pasta</text><ellipse cx="620" cy="598" rx="250" ry="112" fill="#D6D3D1"/><ellipse cx="620" cy="554" rx="222" ry="86" fill="#FAFAF9"/><path d="M470 500c38-30 70-32 118-4 46 28 90 58 146 40 32-10 58-30 94-30" stroke="#FACC15" stroke-width="18" stroke-linecap="round"/><path d="M458 548c38-28 84-22 132 16 50 40 94 50 146 24 30-14 56-38 82-48" stroke="#FACC15" stroke-width="18" stroke-linecap="round"/><circle cx="548" cy="514" r="18" fill="#78716C"/><circle cx="642" cy="566" r="18" fill="#78716C"/><circle cx="726" cy="520" r="18" fill="#A8A29E"/><rect x="506" y="622" width="210" height="12" rx="6" fill="#65A30D"/><text x="90" y="790" fill="#57534E" font-family="Segoe UI, Arial, sans-serif" font-size="26">Cream sauce and mushroom pasta concept</text></svg>