<svg xmlns="http://www.w3.org/2000/svg" viewBox="0 0 1200 900" fill="none"><rect width="1200" height="900" rx="44" fill="#FFF8F1"/><circle cx="1008" cy="145" r="118" fill="#FCA5A5" fill-opacity=".48"/><text x="90" y="150" fill="#9A3412" font-family="Segoe UI, Arial, sans-serif" font-size="42" font-weight="700">Mì Ý Bò Bằm Sốt Cà Chua</text><text x="90" y="205" fill="#B91C1C" font-family="Segoe UI, Arial, sans-serif" font-size="28">Spaghetti with slow tomato beef sauce</text><ellipse cx="620" cy="598" rx="250" ry="112" fill="#E5E7EB"/><ellipse cx="620" cy="554" rx="222" ry="86" fill="#FFF7ED"/><path d="M470 500c34-40 64-52 98-40 34 12 46 48 84 48 44 0 58-46 114-46 36 0 62 14 90 42" stroke="#F59E0B" stroke-width="18" stroke-linecap="round"/><path d="M458 548c34-34 74-38 120-10 52 30 82 72 134 72 44 0 72-14 104-46" stroke="#F59E0B" stroke-width="18" stroke-linecap="round"/><path d="M484 590c54-18 96-2 138 34 40 34 100 42 160 12" stroke="#F59E0B" stroke-width="18" stroke-linecap="round"/><circle cx="548" cy="522" r="16" fill="#DC2626"/><circle cx="634" cy="564" r="16" fill="#DC2626"/><circle cx="718" cy="520" r="16" fill="#7C2D12"/><text x="90" y="790" fill="#B91C1C" font-family="Segoe UI, Arial, sans-serif" font-size="26">Tomato spaghetti concept</text></svg>