<svg xmlns="http://www.w3.org/2000/svg" viewBox="0 0 1200 900" fill="none"><rect width="1200" height="900" rx="44" fill="#FFF8F1"/><circle cx="1016" cy="150" r="118" fill="#FDBA74" fill-opacity=".5"/><text x="90" y="150" fill="#9A3412" font-family="Segoe UI, Arial, sans-serif" font-size="42" font-weight="700">Nui Bò Lúc Lắc</text><text x="90" y="205" fill="#92400E" font-family="Segoe UI, Arial, sans-serif" font-size="28">Macaroni with seared beef cubes</text><ellipse cx="620" cy="598" rx="250" ry="112" fill="#E5E7EB"/><ellipse cx="620" cy="554" rx="222" ry="86" fill="#FFF7ED"/><rect x="492" y="486" width="52" height="52" rx="12" fill="#7C2D12" transform="rotate(12 492 486)"/><rect x="606" y="470" width="52" height="52" rx="12" fill="#7C2D12" transform="rotate(-10 606 470)"/><rect x="694" y="530" width="52" height="52" rx="12" fill="#7C2D12" transform="rotate(10 694 530)"/><path d="M468 580c36-34 78-42 128-22 54 22 92 40 144 28 38-8 76-30 102-54" stroke="#F59E0B" stroke-width="18" stroke-linecap="round"/><path d="M474 626c44-12 94-2 146 24 58 28 108 26 164-8" stroke="#F59E0B" stroke-width="18" stroke-linecap="round"/><rect x="560" y="620" width="20" height="20" rx="5" fill="#22C55E" transform="rotate(10 560 620)"/><rect x="654" y="604" width="20" height="20" rx="5" fill="#EF4444" transform="rotate(-14 654 604)"/><text x="90" y="790" fill="#92400E" font-family="Segoe UI, Arial, sans-serif" font-size="26">Shaking beef macaroni concept</text></svg>