<svg xmlns="http://www.w3.org/2000/svg" viewBox="0 0 1200 900" fill="none"><rect width="1200" height="900" rx="44" fill="#FFF7ED"/><circle cx="1015" cy="145" r="118" fill="#FCA5A5" fill-opacity=".46"/><text x="90" y="150" fill="#9A3412" font-family="Segoe UI, Arial, sans-serif" font-size="42" font-weight="700">Pizza Bò Bằm Xúc Xích</text><text x="90" y="205" fill="#B91C1C" font-family="Segoe UI, Arial, sans-serif" font-size="28">Minced beef and smoked sausage pizza</text><circle cx="620" cy="520" r="218" fill="#D97706"/><circle cx="620" cy="520" r="184" fill="#FCD34D"/><path d="M620 520 786 364" stroke="#B91C1C" stroke-width="12"/><path d="M620 520 838 556" stroke="#B91C1C" stroke-width="12"/><path d="M620 520 688 718" stroke="#B91C1C" stroke-width="12"/><path d="M620 520 448 654" stroke="#B91C1C" stroke-width="12"/><path d="M620 520 430 424" stroke="#B91C1C" stroke-width="12"/><circle cx="556" cy="428" r="18" fill="#7C2D12"/><circle cx="696" cy="460" r="18" fill="#7C2D12"/><circle cx="692" cy="620" r="18" fill="#7C2D12"/><rect x="470" y="548" width="46" height="20" rx="10" fill="#DC2626" transform="rotate(18 470 548)"/><rect x="726" y="522" width="46" height="20" rx="10" fill="#DC2626" transform="rotate(-22 726 522)"/><text x="90" y="790" fill="#B91C1C" font-family="Segoe UI, Arial, sans-serif" font-size="26">Beef and sausage pizza artwork</text></svg>