<svg xmlns="http://www.w3.org/2000/svg" viewBox="0 0 1200 900" fill="none"><rect width="1200" height="900" rx="44" fill="#FFFBEA"/><circle cx="1008" cy="145" r="118" fill="#FDE68A" fill-opacity=".58"/><text x="90" y="150" fill="#92400E" font-family="Segoe UI, Arial, sans-serif" font-size="42" font-weight="700">Pizza 4 Loại Phô Mai</text><text x="90" y="205" fill="#CA8A04" font-family="Segoe UI, Arial, sans-serif" font-size="28">Four-cheese pizza with honey heat</text><circle cx="620" cy="520" r="218" fill="#D97706"/><circle cx="620" cy="520" r="184" fill="#FDE68A"/><path d="M620 520 786 364" stroke="#CA8A04" stroke-width="12"/><path d="M620 520 838 556" stroke="#CA8A04" stroke-width="12"/><path d="M620 520 690 718" stroke="#CA8A04" stroke-width="12"/><path d="M620 520 448 654" stroke="#CA8A04" stroke-width="12"/><path d="M620 520 428 424" stroke="#CA8A04" stroke-width="12"/><circle cx="550" cy="428" r="18" fill="#F8FAFC"/><circle cx="678" cy="448" r="18" fill="#FEF3C7"/><circle cx="710" cy="588" r="18" fill="#EAB308"/><circle cx="560" cy="622" r="18" fill="#D4D4D8"/><path d="M462 500c62 0 76 58 136 58 54 0 60-44 122-44 58 0 82 58 142 58" stroke="#F59E0B" stroke-width="14" stroke-linecap="round"/><text x="90" y="790" fill="#CA8A04" font-family="Segoe UI, Arial, sans-serif" font-size="26">Four-cheese pizza concept</text></svg>