<svg xmlns="http://www.w3.org/2000/svg" viewBox="0 0 1200 900" fill="none"><rect width="1200" height="900" rx="44" fill="#FFFDF4"/><circle cx="1015" cy="145" r="118" fill="#FDE68A" fill-opacity=".52"/><text x="90" y="150" fill="#92400E" font-family="Segoe UI, Arial, sans-serif" font-size="42" font-weight="700">Soda Chanh Dây</text><text x="90" y="205" fill="#CA8A04" font-family="Segoe UI, Arial, sans-serif" font-size="28">Sparkling passionfruit soda</text><path d="M486 312h210l-28 336c-4 42-38 74-80 74h-4c-42 0-76-32-80-74l-18-210Z" fill="#FDE68A"/><path d="M500 456c42 20 84 20 126 0 34-16 64-16 94 0" stroke="#F59E0B" stroke-width="18" stroke-linecap="round"/><circle cx="552" cy="594" r="12" fill="#FACC15"/><circle cx="626" cy="548" r="12" fill="#FACC15"/><circle cx="588" cy="624" r="12" fill="#FACC15"/><circle cx="746" cy="430" r="84" fill="#F59E0B"/><circle cx="746" cy="430" r="64" fill="#FCD34D"/><circle cx="728" cy="420" r="10" fill="#111827"/><circle cx="768" cy="448" r="10" fill="#111827"/><text x="90" y="790" fill="#CA8A04" font-family="Segoe UI, Arial, sans-serif" font-size="26">Citrus soda artwork</text></svg>